<svg width="41" height="40" viewBox="0 0 41 40" fill="none" xmlns="http://www.w3.org/2000/svg">
<rect x="0.333008" width="40" height="40" rx="5" fill="#F5FAFF"/>
<path d="M17.498 26C17.498 26.4612 17.8719 26.835 18.333 26.835C18.7942 26.835 19.168 26.4612 19.168 26H17.498ZM19.168 14C19.168 13.5388 18.7942 13.165 18.333 13.165C17.8719 13.165 17.498 13.5388 17.498 14H19.168ZM13.498 26C13.498 26.4612 13.8719 26.835 14.333 26.835C14.7942 26.835 15.168 26.4612 15.168 26H13.498ZM15.168 23C15.168 22.5388 14.7942 22.165 14.333 22.165C13.8719 22.165 13.498 22.5388 13.498 23H15.168ZM21.498 26C21.498 26.4612 21.8719 26.835 22.333 26.835C22.7942 26.835 23.168 26.4612 23.168 26H21.498ZM23.168 17C23.168 16.5388 22.7942 16.165 22.333 16.165C21.8719 16.165 21.498 16.5388 21.498 17H23.168ZM25.498 26C25.498 26.4612 25.8719 26.835 26.333 26.835C26.7942 26.835 27.168 26.4612 27.168 26H25.498ZM27.168 20C27.168 19.5388 26.7942 19.165 26.333 19.165C25.8719 19.165 25.498 19.5388 25.498 20H27.168ZM12.0631 30.455L12.4421 29.711H12.4421L12.0631 30.455ZM9.87798 28.27L10.622 27.8909H10.622L9.87798 28.27ZM30.788 28.27L30.0441 27.8909L30.788 28.27ZM28.603 30.455L28.2239 29.711L28.603 30.455ZM28.603 9.54497L28.2239 10.289V10.289L28.603 9.54497ZM30.788 11.73L30.0441 12.1091V12.1091L30.788 11.73ZM12.0631 9.54497L12.4421 10.289L12.0631 9.54497ZM9.87798 11.73L10.622 12.1091L9.87798 11.73ZM19.168 26L19.168 14H17.498L17.498 26H19.168ZM15.168 26V23H13.498V26H15.168ZM23.168 26V17H21.498V26H23.168ZM27.168 26V20H25.498V26H27.168ZM17.333 9.835H23.333V8.165H17.333V9.835ZM30.498 17V23H32.168V17H30.498ZM23.333 30.165H17.333V31.835H23.333V30.165ZM10.168 23V17H8.49801V23H10.168ZM17.333 30.165C15.9191 30.165 14.9089 30.1644 14.117 30.0997C13.3349 30.0357 12.8396 29.9136 12.4421 29.711L11.684 31.199C12.3561 31.5415 13.0956 31.6918 13.981 31.7641C14.8567 31.8356 15.9467 31.835 17.333 31.835V30.165ZM8.49801 23C8.49801 24.3864 8.49736 25.4763 8.5689 26.352C8.64124 27.2374 8.79153 27.9769 9.13398 28.649L10.622 27.8909C10.4195 27.4934 10.2973 26.9981 10.2334 26.216C10.1687 25.4241 10.168 24.4139 10.168 23H8.49801ZM12.4421 29.711C11.6584 29.3117 11.0213 28.6746 10.622 27.8909L9.13398 28.649C9.69341 29.747 10.586 30.6396 11.684 31.199L12.4421 29.711ZM30.498 23C30.498 24.4139 30.4974 25.4241 30.4327 26.216C30.3688 26.9981 30.2466 27.4934 30.0441 27.8909L31.532 28.649C31.8745 27.9769 32.0248 27.2374 32.0971 26.352C32.1687 25.4763 32.168 24.3864 32.168 23H30.498ZM23.333 31.835C24.7194 31.835 25.8093 31.8356 26.685 31.7641C27.5704 31.6918 28.3099 31.5415 28.982 31.199L28.2239 29.711C27.8264 29.9136 27.3311 30.0357 26.549 30.0997C25.7571 30.1644 24.7469 30.165 23.333 30.165V31.835ZM30.0441 27.8909C29.6447 28.6746 29.0076 29.3117 28.2239 29.711L28.982 31.199C30.08 30.6396 30.9726 29.747 31.532 28.649L30.0441 27.8909ZM23.333 9.835C24.7469 9.835 25.7571 9.83565 26.549 9.90035C27.3311 9.96425 27.8264 10.0864 28.2239 10.289L28.982 8.80098C28.3099 8.45852 27.5704 8.30823 26.685 8.23589C25.8093 8.16435 24.7194 8.165 23.333 8.165V9.835ZM32.168 17C32.168 15.6136 32.1687 14.5237 32.0971 13.648C32.0248 12.7626 31.8745 12.0231 31.532 11.351L30.0441 12.1091C30.2466 12.5066 30.3688 13.0019 30.4327 13.784C30.4974 14.5759 30.498 15.5861 30.498 17H32.168ZM28.2239 10.289C29.0076 10.6883 29.6447 11.3254 30.0441 12.1091L31.532 11.351C30.9726 10.253 30.08 9.3604 28.982 8.80098L28.2239 10.289ZM17.333 8.165C15.9467 8.165 14.8567 8.16435 13.981 8.23589C13.0956 8.30823 12.3561 8.45852 11.684 8.80098L12.4421 10.289C12.8396 10.0864 13.3349 9.96425 14.117 9.90035C14.9089 9.83565 15.9191 9.835 17.333 9.835V8.165ZM10.168 17C10.168 15.5861 10.1687 14.5759 10.2334 13.784C10.2973 13.0019 10.4195 12.5066 10.622 12.1091L9.13398 11.351C8.79153 12.0231 8.64124 12.7626 8.5689 13.648C8.49736 14.5237 8.49801 15.6136 8.49801 17H10.168ZM11.684 8.80098C10.586 9.3604 9.69341 10.253 9.13398 11.351L10.622 12.1091C11.0213 11.3254 11.6584 10.6883 12.4421 10.289L11.684 8.80098Z" fill="#437EF7"/>
</svg>
