<svg width="41" height="40" viewBox="0 0 41 40" fill="none" xmlns="http://www.w3.org/2000/svg">
<rect x="0.666992" width="40" height="40" rx="5" fill="#F5FAFF"/>
<path d="M14.667 11H29.667C30.7716 11 31.667 11.8954 31.667 13V25M14.667 18H17.667M14.667 21H17.667M14.667 24H17.667M13.867 28H25.467C26.5871 28 27.1472 28 27.575 27.782C27.9513 27.5903 28.2573 27.2843 28.449 26.908C28.667 26.4802 28.667 25.9201 28.667 24.8V17.2C28.667 16.0799 28.667 15.5198 28.449 15.092C28.2573 14.7157 27.9513 14.4097 27.575 14.218C27.1472 14 26.5871 14 25.467 14H13.867C12.7469 14 12.1868 14 11.759 14.218C11.3827 14.4097 11.0767 14.7157 10.885 15.092C10.667 15.5198 10.667 16.0799 10.667 17.2V24.8C10.667 25.9201 10.667 26.4802 10.885 26.908C11.0767 27.2843 11.3827 27.5903 11.759 27.782C12.1868 28 12.7469 28 13.867 28ZM21.467 22H23.867C24.147 22 24.287 22 24.394 21.9455C24.4881 21.8976 24.5646 21.8211 24.6125 21.727C24.667 21.62 24.667 21.48 24.667 21.2V18.8C24.667 18.52 24.667 18.38 24.6125 18.273C24.5646 18.1789 24.4881 18.1024 24.394 18.0545C24.287 18 24.147 18 23.867 18H21.467C21.187 18 21.047 18 20.94 18.0545C20.8459 18.1024 20.7694 18.1789 20.7215 18.273C20.667 18.38 20.667 18.52 20.667 18.8V21.2C20.667 21.48 20.667 21.62 20.7215 21.727C20.7694 21.8211 20.8459 21.8976 20.94 21.9455C21.047 22 21.187 22 21.467 22Z" stroke="#437EF7" stroke-width="1.67" stroke-linecap="round"/>
</svg>
