<svg width="50" height="36" viewBox="0 0 50 36" fill="none" xmlns="http://www.w3.org/2000/svg">
<g filter="url(#filter0_d_4_183838)">
<rect x="2" y="1" width="46" height="32" rx="5" fill="white"/>
<path d="M21.1119 16.4294C21.0274 17.0634 20.5202 17.0634 20.0552 17.0634H19.8016L20.013 15.8377C20.013 15.7532 20.0975 15.7109 20.182 15.7109H20.3088C20.647 15.7109 20.9428 15.7109 21.1119 15.88C21.1119 16.049 21.1119 16.2181 21.1119 16.4294ZM20.9006 14.7388H19.0831C18.9563 14.7388 18.8718 14.8233 18.8295 14.9501L18.111 19.5994C18.111 19.6839 18.1533 19.7685 18.2801 19.7685H19.1254C19.2522 19.7685 19.3367 19.6839 19.379 19.5571L19.5903 18.2892C19.5903 18.1624 19.7171 18.0778 19.8439 18.0778H20.4356C21.6191 18.0778 22.2954 17.4861 22.5067 16.3449C22.5912 15.8377 22.5067 15.4573 22.2954 15.1614C21.9572 14.9078 21.4923 14.7388 20.9006 14.7388Z" fill="#263577"/>
<path d="M25.0849 18.1201C25.0004 18.6273 24.62 18.9654 24.1128 18.9654C23.8592 18.9654 23.6479 18.8809 23.5211 18.7118C23.3943 18.5428 23.352 18.3314 23.3943 18.1201C23.4788 17.6129 23.8592 17.2748 24.3664 17.2748C24.62 17.2748 24.8313 17.3593 24.9581 17.5284C25.0427 17.6552 25.1272 17.8665 25.0849 18.1201ZM26.2684 16.4295H25.4231C25.3385 16.4295 25.2963 16.4717 25.254 16.5562L25.2117 16.8098L25.1695 16.7253C25.0004 16.4717 24.5777 16.3449 24.1551 16.3449C23.1829 16.3449 22.3799 17.0634 22.2108 18.0778C22.1263 18.585 22.2531 19.05 22.5489 19.3881C22.8025 19.684 23.1829 19.8108 23.6479 19.8108C24.4087 19.8108 24.8313 19.3036 24.8313 19.3036L24.7891 19.5572C24.7891 19.6417 24.8313 19.7262 24.9581 19.7262H25.7189C25.8457 19.7262 25.9303 19.6417 25.9725 19.5149L26.4375 16.5562C26.4375 16.514 26.3952 16.4295 26.2684 16.4295Z" fill="#263577"/>
<path d="M30.8754 16.4294H29.9878C29.9033 16.4294 29.8188 16.4717 29.7765 16.5562L28.593 18.3314L28.0858 16.6408C28.0436 16.514 27.959 16.4717 27.8322 16.4717H26.9869C26.9024 16.4717 26.8178 16.5562 26.8601 16.683L27.8322 19.4726L26.9446 20.7406C26.8601 20.8251 26.9446 20.9942 27.0714 20.9942H27.959C28.0436 20.9942 28.1281 20.9519 28.1704 20.8674L31.0445 16.683C31.0867 16.5562 31.0022 16.4294 30.8754 16.4294Z" fill="#263577"/>
<path d="M33.9609 16.4294C33.8763 17.0634 33.3691 17.0634 32.9042 17.0634H32.6506L32.8619 15.8377C32.8619 15.7532 32.9465 15.7109 33.031 15.7109H33.1578C33.4959 15.7109 33.7918 15.7109 33.9609 15.88C34.0031 16.049 34.0031 16.2181 33.9609 16.4294ZM33.7495 14.7388H31.9321C31.8053 14.7388 31.7207 14.8233 31.6785 14.9501L30.9599 19.5994C30.9599 19.6839 31.0022 19.7685 31.129 19.7685H32.0589C32.1434 19.7685 32.2279 19.7262 32.2279 19.5994L32.4393 18.2892C32.4393 18.1624 32.5661 18.0778 32.6929 18.0778H33.2846C34.468 18.0778 35.1443 17.4861 35.3557 16.3449C35.4402 15.8377 35.3557 15.4573 35.1443 15.1614C34.8485 14.9078 34.3835 14.7388 33.7495 14.7388Z" fill="#2199D6"/>
<path d="M37.9762 18.1201C37.8917 18.6273 37.5113 18.9654 37.0041 18.9654C36.7505 18.9654 36.5391 18.8809 36.4123 18.7118C36.2855 18.5428 36.2433 18.3314 36.2855 18.1201C36.3701 17.6129 36.7505 17.2748 37.2577 17.2748C37.5113 17.2748 37.7226 17.3593 37.8494 17.5284C37.9339 17.6552 38.0185 17.8665 37.9762 18.1201ZM39.1597 16.4295H38.3143C38.2298 16.4295 38.1875 16.4717 38.1453 16.5562L38.103 16.8098L38.0607 16.7253C37.8917 16.4717 37.469 16.3449 37.0463 16.3449C36.0742 16.3449 35.2711 17.0634 35.1021 18.0778C35.0175 18.585 35.1443 19.05 35.4402 19.3881C35.6938 19.684 36.0742 19.8108 36.5391 19.8108C37.2999 19.8108 37.7226 19.3036 37.7226 19.3036L37.6803 19.5572C37.6803 19.6417 37.7226 19.7262 37.8494 19.7262H38.6102C38.737 19.7262 38.8215 19.6417 38.8638 19.5149L39.3287 16.5562C39.3287 16.514 39.2442 16.4295 39.1597 16.4295Z" fill="#2199D6"/>
<path d="M40.174 14.8656L39.4132 19.5994C39.4132 19.6839 39.4555 19.7685 39.5823 19.7685H40.3431C40.4699 19.7685 40.5544 19.6839 40.5967 19.5571L41.3152 14.9078C41.3152 14.8233 41.2729 14.7388 41.1461 14.7388H40.3008C40.2586 14.7388 40.2163 14.8233 40.174 14.8656Z" fill="#2199D6"/>
<path d="M10.5876 20.6561L10.7144 19.7685H8.93919L9.95359 13.3017C9.95359 13.3017 9.95358 13.2594 9.99585 13.2594H12.5318C13.3349 13.2594 13.9266 13.4285 14.2225 13.7666C14.3493 13.9357 14.4338 14.1048 14.4761 14.2738C14.5184 14.4852 14.5184 14.6965 14.4761 14.9924V15.1614L14.6029 15.246C14.7297 15.2882 14.8142 15.3728 14.8988 15.4573C15.0256 15.5841 15.1101 15.7532 15.1101 15.9645C15.1524 16.1758 15.1524 16.4294 15.0678 16.7253C14.9833 17.0634 14.8988 17.317 14.772 17.5706C14.6452 17.782 14.4761 17.951 14.307 18.1201C14.138 18.2469 13.8844 18.3314 13.673 18.416C13.4194 18.4582 13.1658 18.5005 12.87 18.5005H12.6586C12.5318 18.5005 12.405 18.5427 12.2782 18.6273C12.1937 18.7118 12.1092 18.8386 12.0669 18.9654V19.0499L11.8133 20.6138V20.6983C11.8133 20.6983 11.8133 20.6983 11.771 20.6983H10.5876V20.6561Z" fill="#263577"/>
<path d="M14.7719 14.9924C14.7719 15.0346 14.7719 15.0769 14.7296 15.1192C14.3915 16.8098 13.2925 17.3593 11.8555 17.3593H11.137C10.9679 17.3593 10.7988 17.4861 10.7988 17.6551L10.4184 20.0221L10.3339 20.6983C10.3339 20.8251 10.4184 20.9097 10.503 20.9097H11.8132C11.9823 20.9097 12.1091 20.7829 12.1091 20.6561V20.5715L12.3627 19.0499V18.9654C12.405 18.7963 12.5318 18.7118 12.6586 18.7118H12.8699C14.1379 18.7118 15.11 18.2046 15.3636 16.7253C15.4904 16.0913 15.4059 15.5841 15.11 15.246C15.0255 15.1614 14.8987 15.0769 14.7719 14.9924Z" fill="#2199D6"/>
<path d="M14.4338 14.8656C14.3915 14.8656 14.3492 14.8233 14.2647 14.8233C14.2224 14.8233 14.1379 14.781 14.0956 14.781C13.8843 14.7388 13.673 14.7388 13.4616 14.7388H11.5174C11.4751 14.7388 11.4329 14.7388 11.3906 14.781C11.3061 14.8233 11.2215 14.9078 11.2215 14.9924L10.7989 17.6129V17.6974C10.8411 17.5284 10.9679 17.4016 11.137 17.4016H11.8555C13.2926 17.4016 14.3915 16.8098 14.7296 15.1614C14.7296 15.1192 14.7296 15.0769 14.7719 15.0346C14.6874 14.9924 14.6028 14.9501 14.5183 14.9078C14.476 14.8656 14.4338 14.8656 14.4338 14.8656Z" fill="#252C5E"/>
<path d="M11.2215 14.9924C11.2215 14.9078 11.3061 14.8233 11.3906 14.781C11.4329 14.781 11.4751 14.7388 11.5174 14.7388H13.4616C13.673 14.7388 13.9266 14.7388 14.0956 14.781C14.1379 14.781 14.2224 14.781 14.2647 14.8233C14.307 14.8233 14.3492 14.8656 14.4338 14.8656C14.476 14.8656 14.476 14.8656 14.5183 14.9078C14.6028 14.9501 14.6874 14.9924 14.7719 15.0346C14.8564 14.4006 14.7719 13.978 14.4338 13.5976C14.0534 13.1749 13.3771 13.0059 12.5318 13.0059H10.0381C9.86901 13.0059 9.69994 13.1327 9.69994 13.3017L8.68555 19.8108C8.68555 19.9376 8.77008 20.0644 8.89688 20.0644H10.4185L10.7989 17.6129L11.2215 14.9924Z" fill="#263577"/>
<rect x="2.5" y="1.5" width="45" height="31" rx="4.5" stroke="#DAE0E6"/>
</g>
<defs>
<filter id="filter0_d_4_183838" x="0" y="0" width="50" height="36" filterUnits="userSpaceOnUse" color-interpolation-filters="sRGB">
<feFlood flood-opacity="0" result="BackgroundImageFix"/>
<feColorMatrix in="SourceAlpha" type="matrix" values="0 0 0 0 0 0 0 0 0 0 0 0 0 0 0 0 0 0 127 0" result="hardAlpha"/>
<feOffset dy="1"/>
<feGaussianBlur stdDeviation="1"/>
<feComposite in2="hardAlpha" operator="out"/>
<feColorMatrix type="matrix" values="0 0 0 0 0.0627451 0 0 0 0 0.0941176 0 0 0 0 0.156863 0 0 0 0.04 0"/>
<feBlend mode="normal" in2="BackgroundImageFix" result="effect1_dropShadow_4_183838"/>
<feBlend mode="normal" in="SourceGraphic" in2="effect1_dropShadow_4_183838" result="shape"/>
</filter>
</defs>
</svg>
