<svg width="28" height="28" viewBox="0 0 28 28" fill="none" xmlns="http://www.w3.org/2000/svg">
<path fill-rule="evenodd" clip-rule="evenodd" d="M22.1663 11.6298H24.0703C24.2259 11.6298 24.3037 11.6298 24.3698 11.6034C24.4283 11.5802 24.48 11.5424 24.5203 11.4936C24.5659 11.4383 24.5905 11.3635 24.6397 11.214L25.3449 9.07023C25.5784 8.36055 25.6951 8.0057 25.6603 7.67664C25.6296 7.38666 25.5172 7.11175 25.3365 6.8847C25.1315 6.62704 24.8014 6.45977 24.141 6.12522L15.0733 1.53123C14.6797 1.33179 14.4828 1.23207 14.2764 1.19282C14.0935 1.15806 13.9059 1.15806 13.723 1.19282C13.5165 1.23207 13.3197 1.33179 12.926 1.53123L3.85831 6.12522C3.19797 6.45977 2.8678 6.62704 2.66281 6.8847C2.48217 7.11175 2.36979 7.38666 2.33907 7.67664C2.30422 8.0057 2.42095 8.36055 2.65442 9.07023L3.35965 11.214C3.40884 11.3635 3.43343 11.4383 3.47905 11.4936C3.51934 11.5424 3.57108 11.5802 3.62952 11.6034C3.6957 11.6298 3.77348 11.6298 3.92903 11.6298H5.83301V20.752H5.37088C4.70067 20.752 4.36557 20.752 4.08678 20.8707C3.8408 20.9754 3.62682 21.1447 3.4669 21.3611C3.28565 21.6063 3.20437 21.9357 3.04183 22.5946L2.74173 23.8109C2.48753 24.8411 2.36043 25.3563 2.48418 25.762C2.59265 26.1176 2.82607 26.4205 3.14021 26.6134C3.49865 26.8334 4.0227 26.8334 5.07079 26.8334H22.9286C23.9767 26.8334 24.5007 26.8334 24.8591 26.6134C25.1733 26.4205 25.4067 26.1176 25.5152 25.762C25.6389 25.3563 25.5118 24.8411 25.2576 23.8109L24.9575 22.5946C24.795 21.9358 24.7137 21.6063 24.5324 21.3611C24.3725 21.1447 24.1586 20.9754 23.9126 20.8707C23.6338 20.752 23.2987 20.752 22.6285 20.752H22.1663V11.6298ZM19.833 11.6298H15.1663V20.752H19.833V11.6298ZM12.833 20.752V11.6298H8.16635V20.752H12.833Z" fill="#437EF7"/>
</svg>
