<svg width="11" height="3" viewBox="0 0 11 3" fill="none" xmlns="http://www.w3.org/2000/svg">
<path d="M1.97869 2.09446C1.70691 2.09446 1.47325 1.99834 1.2777 1.80611C1.08215 1.61056 0.984375 1.37524 0.984375 1.10014C0.984375 0.828362 1.08215 0.596354 1.2777 0.404119C1.47325 0.20857 1.70691 0.110795 1.97869 0.110795C2.25047 0.110795 2.48414 0.20857 2.67969 0.404119C2.87524 0.596354 2.97301 0.828362 2.97301 1.10014C2.97301 1.28243 2.92661 1.44981 2.83381 1.60227C2.74432 1.75142 2.625 1.87074 2.47585 1.96023C2.3267 2.04972 2.16098 2.09446 1.97869 2.09446ZM5.84354 2.09446C5.57176 2.09446 5.33809 1.99834 5.14254 1.80611C4.94699 1.61056 4.84922 1.37524 4.84922 1.10014C4.84922 0.828362 4.94699 0.596354 5.14254 0.404119C5.33809 0.20857 5.57176 0.110795 5.84354 0.110795C6.11532 0.110795 6.34898 0.20857 6.54453 0.404119C6.74008 0.596354 6.83786 0.828362 6.83786 1.10014C6.83786 1.28243 6.79145 1.44981 6.69865 1.60227C6.60916 1.75142 6.48984 1.87074 6.3407 1.96023C6.19155 2.04972 6.02583 2.09446 5.84354 2.09446ZM9.70838 2.09446C9.4366 2.09446 9.20294 1.99834 9.00739 1.80611C8.81184 1.61056 8.71406 1.37524 8.71406 1.10014C8.71406 0.828362 8.81184 0.596354 9.00739 0.404119C9.20294 0.20857 9.4366 0.110795 9.70838 0.110795C9.98016 0.110795 10.2138 0.20857 10.4094 0.404119C10.6049 0.596354 10.7027 0.828362 10.7027 1.10014C10.7027 1.28243 10.6563 1.44981 10.5635 1.60227C10.474 1.75142 10.3547 1.87074 10.2055 1.96023C10.0564 2.04972 9.89067 2.09446 9.70838 2.09446Z" fill="#5F6D7E"/>
</svg>
