<svg width="77" height="186" viewBox="0 0 77 186" fill="none" xmlns="http://www.w3.org/2000/svg">
<path fill-rule="evenodd" clip-rule="evenodd" d="M321.646 -756.939L-244.039 -191.253L-244.746 -191.961L320.939 -757.646L321.646 -756.939Z" fill="#1264E0"/>
<path fill-rule="evenodd" clip-rule="evenodd" d="M321.646 -748.939L-244.039 -183.253L-244.746 -183.961L320.939 -749.646L321.646 -748.939Z" fill="#1264E0"/>
<path fill-rule="evenodd" clip-rule="evenodd" d="M321.646 -740.939L-244.039 -175.253L-244.746 -175.961L320.939 -741.646L321.646 -740.939Z" fill="#1264E0"/>
<path fill-rule="evenodd" clip-rule="evenodd" d="M321.646 -732.939L-244.039 -167.253L-244.746 -167.961L320.939 -733.646L321.646 -732.939Z" fill="#1264E0"/>
<path fill-rule="evenodd" clip-rule="evenodd" d="M321.646 -724.939L-244.039 -159.253L-244.746 -159.961L320.939 -725.646L321.646 -724.939Z" fill="#1264E0"/>
<path fill-rule="evenodd" clip-rule="evenodd" d="M321.646 -716.939L-244.039 -151.253L-244.746 -151.961L320.939 -717.646L321.646 -716.939Z" fill="#1264E0"/>
<path fill-rule="evenodd" clip-rule="evenodd" d="M321.646 -708.939L-244.039 -143.253L-244.746 -143.961L320.939 -709.646L321.646 -708.939Z" fill="#1264E0"/>
<path fill-rule="evenodd" clip-rule="evenodd" d="M321.646 -700.939L-244.039 -135.253L-244.746 -135.961L320.939 -701.646L321.646 -700.939Z" fill="#1264E0"/>
<path fill-rule="evenodd" clip-rule="evenodd" d="M321.646 -692.939L-244.039 -127.253L-244.746 -127.961L320.939 -693.646L321.646 -692.939Z" fill="#1264E0"/>
<path fill-rule="evenodd" clip-rule="evenodd" d="M321.646 -684.939L-244.039 -119.253L-244.746 -119.961L320.939 -685.646L321.646 -684.939Z" fill="#1264E0"/>
<path fill-rule="evenodd" clip-rule="evenodd" d="M321.646 -676.939L-244.039 -111.253L-244.746 -111.961L320.939 -677.646L321.646 -676.939Z" fill="#1264E0"/>
<path fill-rule="evenodd" clip-rule="evenodd" d="M321.646 -668.939L-244.039 -103.253L-244.746 -103.961L320.939 -669.646L321.646 -668.939Z" fill="#1264E0"/>
<path fill-rule="evenodd" clip-rule="evenodd" d="M321.646 -660.939L-244.039 -95.2535L-244.746 -95.9606L320.939 -661.646L321.646 -660.939Z" fill="#1264E0"/>
<path fill-rule="evenodd" clip-rule="evenodd" d="M321.646 -652.939L-244.039 -87.2535L-244.746 -87.9606L320.939 -653.646L321.646 -652.939Z" fill="#1264E0"/>
<path fill-rule="evenodd" clip-rule="evenodd" d="M321.646 -644.939L-244.039 -79.2535L-244.746 -79.9606L320.939 -645.646L321.646 -644.939Z" fill="#1264E0"/>
<path fill-rule="evenodd" clip-rule="evenodd" d="M321.646 -636.939L-244.039 -71.2535L-244.746 -71.9606L320.939 -637.646L321.646 -636.939Z" fill="#1264E0"/>
<path fill-rule="evenodd" clip-rule="evenodd" d="M321.646 -628.939L-244.039 -63.2535L-244.746 -63.9606L320.939 -629.646L321.646 -628.939Z" fill="#1264E0"/>
<path fill-rule="evenodd" clip-rule="evenodd" d="M321.646 -620.939L-244.039 -55.2535L-244.746 -55.9606L320.939 -621.646L321.646 -620.939Z" fill="#1264E0"/>
<path fill-rule="evenodd" clip-rule="evenodd" d="M321.646 -612.939L-244.039 -47.2535L-244.746 -47.9606L320.939 -613.646L321.646 -612.939Z" fill="#1264E0"/>
<path fill-rule="evenodd" clip-rule="evenodd" d="M321.646 -604.939L-244.039 -39.2535L-244.746 -39.9606L320.939 -605.646L321.646 -604.939Z" fill="#1264E0"/>
<path fill-rule="evenodd" clip-rule="evenodd" d="M321.646 -596.939L-244.039 -31.2535L-244.746 -31.9606L320.939 -597.646L321.646 -596.939Z" fill="#1264E0"/>
<path fill-rule="evenodd" clip-rule="evenodd" d="M321.646 -588.939L-244.039 -23.2535L-244.746 -23.9606L320.939 -589.646L321.646 -588.939Z" fill="#1264E0"/>
<path fill-rule="evenodd" clip-rule="evenodd" d="M321.646 -580.939L-244.039 -15.2535L-244.746 -15.9606L320.939 -581.646L321.646 -580.939Z" fill="#1264E0"/>
<path fill-rule="evenodd" clip-rule="evenodd" d="M321.646 -572.939L-244.039 -7.25348L-244.746 -7.96057L320.939 -573.646L321.646 -572.939Z" fill="#1264E0"/>
<path fill-rule="evenodd" clip-rule="evenodd" d="M321.646 -564.939L-244.039 0.746521L-244.746 0.0394287L320.939 -565.646L321.646 -564.939Z" fill="#1264E0"/>
<path fill-rule="evenodd" clip-rule="evenodd" d="M321.646 -556.939L-244.039 8.74652L-244.746 8.03943L320.939 -557.646L321.646 -556.939Z" fill="#1264E0"/>
<path fill-rule="evenodd" clip-rule="evenodd" d="M321.646 -548.939L-244.039 16.7465L-244.746 16.0394L320.939 -549.646L321.646 -548.939Z" fill="#1264E0"/>
<path fill-rule="evenodd" clip-rule="evenodd" d="M321.646 -540.939L-244.039 24.7465L-244.746 24.0394L320.939 -541.646L321.646 -540.939Z" fill="#1264E0"/>
<path fill-rule="evenodd" clip-rule="evenodd" d="M321.646 -532.939L-244.039 32.7465L-244.746 32.0394L320.939 -533.646L321.646 -532.939Z" fill="#1264E0"/>
<path fill-rule="evenodd" clip-rule="evenodd" d="M321.646 -524.939L-244.039 40.7465L-244.746 40.0394L320.939 -525.646L321.646 -524.939Z" fill="#1264E0"/>
<path fill-rule="evenodd" clip-rule="evenodd" d="M321.646 -516.939L-244.039 48.7465L-244.746 48.0394L320.939 -517.646L321.646 -516.939Z" fill="#1264E0"/>
<path fill-rule="evenodd" clip-rule="evenodd" d="M321.646 -508.939L-244.039 56.7465L-244.746 56.0394L320.939 -509.646L321.646 -508.939Z" fill="#1264E0"/>
<path fill-rule="evenodd" clip-rule="evenodd" d="M321.646 -500.939L-244.039 64.7465L-244.746 64.0394L320.939 -501.646L321.646 -500.939Z" fill="#1264E0"/>
<path fill-rule="evenodd" clip-rule="evenodd" d="M321.646 -492.939L-244.039 72.7465L-244.746 72.0394L320.939 -493.646L321.646 -492.939Z" fill="#1264E0"/>
<path fill-rule="evenodd" clip-rule="evenodd" d="M321.646 -484.939L-244.039 80.7465L-244.746 80.0394L320.939 -485.646L321.646 -484.939Z" fill="#1264E0"/>
<path fill-rule="evenodd" clip-rule="evenodd" d="M321.646 -476.939L-244.039 88.7465L-244.746 88.0394L320.939 -477.646L321.646 -476.939Z" fill="#1264E0"/>
<path fill-rule="evenodd" clip-rule="evenodd" d="M321.646 -468.939L-244.039 96.7465L-244.746 96.0394L320.939 -469.646L321.646 -468.939Z" fill="#1264E0"/>
<path fill-rule="evenodd" clip-rule="evenodd" d="M321.646 -460.939L-244.039 104.747L-244.746 104.039L320.939 -461.646L321.646 -460.939Z" fill="#1264E0"/>
<path fill-rule="evenodd" clip-rule="evenodd" d="M321.646 -452.939L-244.039 112.747L-244.746 112.039L320.939 -453.646L321.646 -452.939Z" fill="#1264E0"/>
<path fill-rule="evenodd" clip-rule="evenodd" d="M321.646 -444.939L-244.039 120.747L-244.746 120.039L320.939 -445.646L321.646 -444.939Z" fill="#1264E0"/>
<path fill-rule="evenodd" clip-rule="evenodd" d="M321.646 -436.939L-244.039 128.747L-244.746 128.039L320.939 -437.646L321.646 -436.939Z" fill="#1264E0"/>
<path fill-rule="evenodd" clip-rule="evenodd" d="M321.646 -428.939L-244.039 136.747L-244.746 136.039L320.939 -429.646L321.646 -428.939Z" fill="#1264E0"/>
<path fill-rule="evenodd" clip-rule="evenodd" d="M321.646 -420.939L-244.039 144.747L-244.746 144.039L320.939 -421.646L321.646 -420.939Z" fill="#1264E0"/>
<path fill-rule="evenodd" clip-rule="evenodd" d="M321.646 -412.939L-244.039 152.747L-244.746 152.039L320.939 -413.646L321.646 -412.939Z" fill="#1264E0"/>
<path fill-rule="evenodd" clip-rule="evenodd" d="M321.646 -404.939L-244.039 160.747L-244.746 160.039L320.939 -405.646L321.646 -404.939Z" fill="#1264E0"/>
<path fill-rule="evenodd" clip-rule="evenodd" d="M321.646 -396.939L-244.039 168.747L-244.746 168.039L320.939 -397.646L321.646 -396.939Z" fill="#1264E0"/>
<path fill-rule="evenodd" clip-rule="evenodd" d="M321.646 -388.939L-244.039 176.747L-244.746 176.039L320.939 -389.646L321.646 -388.939Z" fill="#1264E0"/>
<path fill-rule="evenodd" clip-rule="evenodd" d="M321.646 -380.939L-244.039 184.747L-244.746 184.039L320.939 -381.646L321.646 -380.939Z" fill="#1264E0"/>
<path fill-rule="evenodd" clip-rule="evenodd" d="M321.646 -372.939L-244.039 192.747L-244.746 192.039L320.939 -373.646L321.646 -372.939Z" fill="#1264E0"/>
<path fill-rule="evenodd" clip-rule="evenodd" d="M321.646 -364.939L-244.039 200.747L-244.746 200.039L320.939 -365.646L321.646 -364.939Z" fill="#1264E0"/>
<path fill-rule="evenodd" clip-rule="evenodd" d="M321.646 -356.939L-244.039 208.747L-244.746 208.039L320.939 -357.646L321.646 -356.939Z" fill="#1264E0"/>
<path fill-rule="evenodd" clip-rule="evenodd" d="M321.646 -348.939L-244.039 216.747L-244.746 216.039L320.939 -349.646L321.646 -348.939Z" fill="#1264E0"/>
<path fill-rule="evenodd" clip-rule="evenodd" d="M321.646 -340.939L-244.039 224.747L-244.746 224.039L320.939 -341.646L321.646 -340.939Z" fill="#1264E0"/>
<path fill-rule="evenodd" clip-rule="evenodd" d="M321.646 -332.939L-244.039 232.747L-244.746 232.039L320.939 -333.646L321.646 -332.939Z" fill="#1264E0"/>
<path fill-rule="evenodd" clip-rule="evenodd" d="M321.646 -324.939L-244.039 240.747L-244.746 240.039L320.939 -325.646L321.646 -324.939Z" fill="#1264E0"/>
<path fill-rule="evenodd" clip-rule="evenodd" d="M321.646 -316.939L-244.039 248.747L-244.746 248.039L320.939 -317.646L321.646 -316.939Z" fill="#1264E0"/>
<path fill-rule="evenodd" clip-rule="evenodd" d="M321.646 -308.939L-244.039 256.747L-244.746 256.039L320.939 -309.646L321.646 -308.939Z" fill="#1264E0"/>
<path fill-rule="evenodd" clip-rule="evenodd" d="M321.646 -300.939L-244.039 264.747L-244.746 264.039L320.939 -301.646L321.646 -300.939Z" fill="#1264E0"/>
<path fill-rule="evenodd" clip-rule="evenodd" d="M321.646 -292.939L-244.039 272.747L-244.746 272.039L320.939 -293.646L321.646 -292.939Z" fill="#1264E0"/>
<path fill-rule="evenodd" clip-rule="evenodd" d="M321.646 -284.939L-244.039 280.747L-244.746 280.039L320.939 -285.646L321.646 -284.939Z" fill="#1264E0"/>
<path fill-rule="evenodd" clip-rule="evenodd" d="M321.646 -276.939L-244.039 288.747L-244.746 288.039L320.939 -277.646L321.646 -276.939Z" fill="#1264E0"/>
<path fill-rule="evenodd" clip-rule="evenodd" d="M321.646 -268.939L-244.039 296.747L-244.746 296.039L320.939 -269.646L321.646 -268.939Z" fill="#1264E0"/>
<path fill-rule="evenodd" clip-rule="evenodd" d="M321.646 -260.939L-244.039 304.747L-244.746 304.039L320.939 -261.646L321.646 -260.939Z" fill="#1264E0"/>
<path fill-rule="evenodd" clip-rule="evenodd" d="M321.646 -252.939L-244.039 312.747L-244.746 312.039L320.939 -253.646L321.646 -252.939Z" fill="#1264E0"/>
<path fill-rule="evenodd" clip-rule="evenodd" d="M321.646 -244.939L-244.039 320.747L-244.746 320.039L320.939 -245.646L321.646 -244.939Z" fill="#1264E0"/>
<path fill-rule="evenodd" clip-rule="evenodd" d="M321.646 -236.939L-244.039 328.747L-244.746 328.039L320.939 -237.646L321.646 -236.939Z" fill="#1264E0"/>
<path fill-rule="evenodd" clip-rule="evenodd" d="M321.646 -228.939L-244.039 336.747L-244.746 336.039L320.939 -229.646L321.646 -228.939Z" fill="#1264E0"/>
<path fill-rule="evenodd" clip-rule="evenodd" d="M321.646 -220.939L-244.039 344.747L-244.746 344.039L320.939 -221.646L321.646 -220.939Z" fill="#1264E0"/>
<path fill-rule="evenodd" clip-rule="evenodd" d="M321.646 -212.939L-244.039 352.747L-244.746 352.039L320.939 -213.646L321.646 -212.939Z" fill="#1264E0"/>
<path fill-rule="evenodd" clip-rule="evenodd" d="M321.646 -204.939L-244.039 360.747L-244.746 360.039L320.939 -205.646L321.646 -204.939Z" fill="#1264E0"/>
<path fill-rule="evenodd" clip-rule="evenodd" d="M321.646 -196.939L-244.039 368.747L-244.746 368.039L320.939 -197.646L321.646 -196.939Z" fill="#1264E0"/>
<path fill-rule="evenodd" clip-rule="evenodd" d="M321.646 -188.939L-244.039 376.747L-244.746 376.039L320.939 -189.646L321.646 -188.939Z" fill="#1264E0"/>
<path fill-rule="evenodd" clip-rule="evenodd" d="M321.646 -180.939L-244.039 384.747L-244.746 384.039L320.939 -181.646L321.646 -180.939Z" fill="#1264E0"/>
<path fill-rule="evenodd" clip-rule="evenodd" d="M321.646 -172.939L-244.039 392.747L-244.746 392.039L320.939 -173.646L321.646 -172.939Z" fill="#1264E0"/>
<path fill-rule="evenodd" clip-rule="evenodd" d="M321.646 -164.939L-244.039 400.747L-244.746 400.039L320.939 -165.646L321.646 -164.939Z" fill="#1264E0"/>
<path fill-rule="evenodd" clip-rule="evenodd" d="M321.646 -156.939L-244.039 408.747L-244.746 408.039L320.939 -157.646L321.646 -156.939Z" fill="#1264E0"/>
<path fill-rule="evenodd" clip-rule="evenodd" d="M321.646 -148.939L-244.039 416.747L-244.746 416.039L320.939 -149.646L321.646 -148.939Z" fill="#1264E0"/>
<path fill-rule="evenodd" clip-rule="evenodd" d="M321.646 -140.939L-244.039 424.747L-244.746 424.039L320.939 -141.646L321.646 -140.939Z" fill="#1264E0"/>
<path fill-rule="evenodd" clip-rule="evenodd" d="M321.646 -132.939L-244.039 432.747L-244.746 432.039L320.939 -133.646L321.646 -132.939Z" fill="#1264E0"/>
<path fill-rule="evenodd" clip-rule="evenodd" d="M321.646 -124.939L-244.039 440.747L-244.746 440.039L320.939 -125.646L321.646 -124.939Z" fill="#1264E0"/>
<path fill-rule="evenodd" clip-rule="evenodd" d="M321.646 -116.939L-244.039 448.747L-244.746 448.039L320.939 -117.646L321.646 -116.939Z" fill="#1264E0"/>
<path fill-rule="evenodd" clip-rule="evenodd" d="M321.646 -108.939L-244.039 456.747L-244.746 456.039L320.939 -109.646L321.646 -108.939Z" fill="#1264E0"/>
<path fill-rule="evenodd" clip-rule="evenodd" d="M321.646 -100.939L-244.039 464.747L-244.746 464.039L320.939 -101.646L321.646 -100.939Z" fill="#1264E0"/>
<path fill-rule="evenodd" clip-rule="evenodd" d="M321.646 -92.9389L-244.039 472.747L-244.746 472.039L320.939 -93.646L321.646 -92.9389Z" fill="#1264E0"/>
<path fill-rule="evenodd" clip-rule="evenodd" d="M321.646 -84.9389L-244.039 480.747L-244.746 480.039L320.939 -85.646L321.646 -84.9389Z" fill="#1264E0"/>
<path fill-rule="evenodd" clip-rule="evenodd" d="M321.646 -76.9389L-244.039 488.747L-244.746 488.039L320.939 -77.646L321.646 -76.9389Z" fill="#1264E0"/>
<path fill-rule="evenodd" clip-rule="evenodd" d="M321.646 -68.9389L-244.039 496.747L-244.746 496.039L320.939 -69.646L321.646 -68.9389Z" fill="#1264E0"/>
<path fill-rule="evenodd" clip-rule="evenodd" d="M321.646 -60.9389L-244.039 504.747L-244.746 504.039L320.939 -61.646L321.646 -60.9389Z" fill="#1264E0"/>
<path fill-rule="evenodd" clip-rule="evenodd" d="M321.646 -52.9389L-244.039 512.747L-244.746 512.039L320.939 -53.646L321.646 -52.9389Z" fill="#1264E0"/>
<path fill-rule="evenodd" clip-rule="evenodd" d="M321.646 -44.9389L-244.039 520.747L-244.746 520.039L320.939 -45.646L321.646 -44.9389Z" fill="#1264E0"/>
<path fill-rule="evenodd" clip-rule="evenodd" d="M321.646 -36.9389L-244.039 528.747L-244.746 528.039L320.939 -37.646L321.646 -36.9389Z" fill="#1264E0"/>
<path fill-rule="evenodd" clip-rule="evenodd" d="M321.646 -28.9389L-244.039 536.747L-244.746 536.039L320.939 -29.646L321.646 -28.9389Z" fill="#1264E0"/>
<path fill-rule="evenodd" clip-rule="evenodd" d="M321.646 -20.9389L-244.039 544.747L-244.746 544.039L320.939 -21.646L321.646 -20.9389Z" fill="#1264E0"/>
<path fill-rule="evenodd" clip-rule="evenodd" d="M321.646 -12.9388L-244.039 552.747L-244.746 552.04L320.939 -13.6459L321.646 -12.9388Z" fill="#1264E0"/>
<path fill-rule="evenodd" clip-rule="evenodd" d="M321.646 -4.93884L-244.039 560.747L-244.746 560.04L320.939 -5.64594L321.646 -4.93884Z" fill="#1264E0"/>
<path fill-rule="evenodd" clip-rule="evenodd" d="M321.646 3.06116L-244.039 568.747L-244.746 568.04L320.939 2.35406L321.646 3.06116Z" fill="#1264E0"/>
<path fill-rule="evenodd" clip-rule="evenodd" d="M321.646 11.0612L-244.039 576.747L-244.746 576.04L320.939 10.3541L321.646 11.0612Z" fill="#1264E0"/>
<path fill-rule="evenodd" clip-rule="evenodd" d="M321.646 19.0612L-244.039 584.747L-244.746 584.04L320.939 18.3541L321.646 19.0612Z" fill="#1264E0"/>
<path fill-rule="evenodd" clip-rule="evenodd" d="M321.646 27.0612L-244.039 592.747L-244.746 592.04L320.939 26.3541L321.646 27.0612Z" fill="#1264E0"/>
<path fill-rule="evenodd" clip-rule="evenodd" d="M321.646 35.0612L-244.039 600.747L-244.746 600.04L320.939 34.3541L321.646 35.0612Z" fill="#1264E0"/>
<path fill-rule="evenodd" clip-rule="evenodd" d="M321.646 43.0612L-244.039 608.747L-244.746 608.04L320.939 42.3541L321.646 43.0612Z" fill="#1264E0"/>
<path fill-rule="evenodd" clip-rule="evenodd" d="M321.646 51.0612L-244.039 616.747L-244.746 616.04L320.939 50.3541L321.646 51.0612Z" fill="#1264E0"/>
<path fill-rule="evenodd" clip-rule="evenodd" d="M321.646 59.0612L-244.039 624.747L-244.746 624.04L320.939 58.3541L321.646 59.0612Z" fill="#1264E0"/>
<path fill-rule="evenodd" clip-rule="evenodd" d="M321.646 67.0612L-244.039 632.747L-244.746 632.04L320.939 66.3541L321.646 67.0612Z" fill="#1264E0"/>
<path fill-rule="evenodd" clip-rule="evenodd" d="M321.646 75.0612L-244.039 640.747L-244.746 640.04L320.939 74.3541L321.646 75.0612Z" fill="#1264E0"/>
<path fill-rule="evenodd" clip-rule="evenodd" d="M321.646 83.0612L-244.039 648.747L-244.746 648.04L320.939 82.3541L321.646 83.0612Z" fill="#1264E0"/>
<path fill-rule="evenodd" clip-rule="evenodd" d="M321.646 91.0612L-244.039 656.747L-244.746 656.04L320.939 90.3541L321.646 91.0612Z" fill="#1264E0"/>
<path fill-rule="evenodd" clip-rule="evenodd" d="M321.646 99.0612L-244.039 664.747L-244.746 664.04L320.939 98.3541L321.646 99.0612Z" fill="#1264E0"/>
<path fill-rule="evenodd" clip-rule="evenodd" d="M321.646 107.061L-244.039 672.747L-244.746 672.04L320.939 106.354L321.646 107.061Z" fill="#1264E0"/>
<path fill-rule="evenodd" clip-rule="evenodd" d="M321.646 115.061L-244.039 680.747L-244.746 680.04L320.939 114.354L321.646 115.061Z" fill="#1264E0"/>
<path fill-rule="evenodd" clip-rule="evenodd" d="M321.646 123.061L-244.039 688.747L-244.746 688.04L320.939 122.354L321.646 123.061Z" fill="#1264E0"/>
<path fill-rule="evenodd" clip-rule="evenodd" d="M321.646 131.061L-244.039 696.747L-244.746 696.04L320.939 130.354L321.646 131.061Z" fill="#1264E0"/>
<path fill-rule="evenodd" clip-rule="evenodd" d="M321.646 139.061L-244.039 704.747L-244.746 704.04L320.939 138.354L321.646 139.061Z" fill="#1264E0"/>
<path fill-rule="evenodd" clip-rule="evenodd" d="M321.646 147.061L-244.039 712.747L-244.746 712.04L320.939 146.354L321.646 147.061Z" fill="#1264E0"/>
<path fill-rule="evenodd" clip-rule="evenodd" d="M321.646 155.061L-244.039 720.747L-244.746 720.04L320.939 154.354L321.646 155.061Z" fill="#1264E0"/>
<path fill-rule="evenodd" clip-rule="evenodd" d="M321.646 163.061L-244.039 728.747L-244.746 728.04L320.939 162.354L321.646 163.061Z" fill="#1264E0"/>
<path fill-rule="evenodd" clip-rule="evenodd" d="M321.646 171.061L-244.039 736.747L-244.746 736.04L320.939 170.354L321.646 171.061Z" fill="#1264E0"/>
<path fill-rule="evenodd" clip-rule="evenodd" d="M321.646 179.061L-244.039 744.747L-244.746 744.04L320.939 178.354L321.646 179.061Z" fill="#1264E0"/>
<path fill-rule="evenodd" clip-rule="evenodd" d="M321.646 187.061L-244.039 752.747L-244.746 752.04L320.939 186.354L321.646 187.061Z" fill="#1264E0"/>
<path fill-rule="evenodd" clip-rule="evenodd" d="M321.646 195.061L-244.039 760.747L-244.746 760.04L320.939 194.354L321.646 195.061Z" fill="#1264E0"/>
<path fill-rule="evenodd" clip-rule="evenodd" d="M321.646 203.061L-244.039 768.747L-244.746 768.04L320.939 202.354L321.646 203.061Z" fill="#1264E0"/>
<path fill-rule="evenodd" clip-rule="evenodd" d="M321.646 211.061L-244.039 776.747L-244.746 776.04L320.939 210.354L321.646 211.061Z" fill="#1264E0"/>
<path fill-rule="evenodd" clip-rule="evenodd" d="M321.646 219.061L-244.039 784.747L-244.746 784.04L320.939 218.354L321.646 219.061Z" fill="#1264E0"/>
<path fill-rule="evenodd" clip-rule="evenodd" d="M321.646 227.061L-244.039 792.747L-244.746 792.04L320.939 226.354L321.646 227.061Z" fill="#1264E0"/>
<path fill-rule="evenodd" clip-rule="evenodd" d="M321.646 235.061L-244.039 800.747L-244.746 800.04L320.939 234.354L321.646 235.061Z" fill="#1264E0"/>
<path fill-rule="evenodd" clip-rule="evenodd" d="M321.646 243.061L-244.039 808.747L-244.746 808.04L320.939 242.354L321.646 243.061Z" fill="#1264E0"/>
<path fill-rule="evenodd" clip-rule="evenodd" d="M321.646 251.061L-244.039 816.747L-244.746 816.04L320.939 250.354L321.646 251.061Z" fill="#1264E0"/>
<path fill-rule="evenodd" clip-rule="evenodd" d="M321.646 259.061L-244.039 824.747L-244.746 824.04L320.939 258.354L321.646 259.061Z" fill="#1264E0"/>
<path fill-rule="evenodd" clip-rule="evenodd" d="M321.646 267.061L-244.039 832.747L-244.746 832.039L320.939 266.354L321.646 267.061Z" fill="#1264E0"/>
<path fill-rule="evenodd" clip-rule="evenodd" d="M321.646 275.061L-244.039 840.747L-244.746 840.039L320.939 274.354L321.646 275.061Z" fill="#1264E0"/>
<path fill-rule="evenodd" clip-rule="evenodd" d="M321.646 283.061L-244.039 848.747L-244.746 848.039L320.939 282.354L321.646 283.061Z" fill="#1264E0"/>
<path fill-rule="evenodd" clip-rule="evenodd" d="M321.646 291.061L-244.039 856.747L-244.746 856.039L320.939 290.354L321.646 291.061Z" fill="#1264E0"/>
<path fill-rule="evenodd" clip-rule="evenodd" d="M321.646 299.061L-244.039 864.747L-244.746 864.039L320.939 298.354L321.646 299.061Z" fill="#1264E0"/>
<path fill-rule="evenodd" clip-rule="evenodd" d="M321.646 307.061L-244.039 872.747L-244.746 872.039L320.939 306.354L321.646 307.061Z" fill="#1264E0"/>
<path fill-rule="evenodd" clip-rule="evenodd" d="M321.646 315.061L-244.039 880.747L-244.746 880.039L320.939 314.354L321.646 315.061Z" fill="#1264E0"/>
<path fill-rule="evenodd" clip-rule="evenodd" d="M321.646 323.061L-244.039 888.747L-244.746 888.039L320.939 322.354L321.646 323.061Z" fill="#1264E0"/>
<path fill-rule="evenodd" clip-rule="evenodd" d="M321.646 331.061L-244.039 896.747L-244.746 896.039L320.939 330.354L321.646 331.061Z" fill="#1264E0"/>
<path fill-rule="evenodd" clip-rule="evenodd" d="M321.646 339.061L-244.039 904.747L-244.746 904.039L320.939 338.354L321.646 339.061Z" fill="#1264E0"/>
<path fill-rule="evenodd" clip-rule="evenodd" d="M321.646 347.061L-244.039 912.747L-244.746 912.039L320.939 346.354L321.646 347.061Z" fill="#1264E0"/>
<path fill-rule="evenodd" clip-rule="evenodd" d="M321.646 355.061L-244.039 920.747L-244.746 920.039L320.939 354.354L321.646 355.061Z" fill="#1264E0"/>
<path fill-rule="evenodd" clip-rule="evenodd" d="M321.646 363.061L-244.039 928.747L-244.746 928.039L320.939 362.354L321.646 363.061Z" fill="#1264E0"/>
<path fill-rule="evenodd" clip-rule="evenodd" d="M321.646 371.061L-244.039 936.747L-244.746 936.039L320.939 370.354L321.646 371.061Z" fill="#1264E0"/>
<path fill-rule="evenodd" clip-rule="evenodd" d="M321.646 379.061L-244.039 944.747L-244.746 944.039L320.939 378.354L321.646 379.061Z" fill="#1264E0"/>
</svg>
