<svg width="40" height="40" viewBox="0 0 40 40" fill="none" xmlns="http://www.w3.org/2000/svg">
<rect width="40" height="40" rx="5" fill="#F5FAFF"/>
<path d="M19 15H21M15 20V23C15 24.1046 15.8954 25 17 25H23C24.1046 25 25 24.1046 25 23V20M17.4 29H22.6C24.8402 29 25.9603 29 26.816 28.564C27.5686 28.1805 28.1805 27.5686 28.564 26.816C29 25.9603 29 24.8402 29 22.6V17.4C29 15.1598 29 14.0397 28.564 13.184C28.1805 12.4314 27.5686 11.8195 26.816 11.436C25.9603 11 24.8402 11 22.6 11H17.4C15.1598 11 14.0397 11 13.184 11.436C12.4314 11.8195 11.8195 12.4314 11.436 13.184C11 14.0397 11 15.1598 11 17.4V22.6C11 24.8402 11 25.9603 11.436 26.816C11.8195 27.5686 12.4314 28.1805 13.184 28.564C14.0397 29 15.1598 29 17.4 29Z" stroke="#437EF7" stroke-width="1.67" stroke-linecap="round"/>
</svg>
