<svg width="50" height="36" viewBox="0 0 50 36" fill="none" xmlns="http://www.w3.org/2000/svg">
<g filter="url(#filter0_d_4_183844)">
<rect x="2" y="1" width="46" height="32" rx="5" fill="white"/>
<path d="M21.1541 24.4823V23.4816C21.16 23.3974 21.1478 23.3129 21.1185 23.2338C21.0891 23.1547 21.0432 23.0828 20.9839 23.0228C20.9246 22.9628 20.8531 22.9162 20.7743 22.886C20.6955 22.8558 20.6112 22.8428 20.527 22.8477C20.4167 22.8406 20.3066 22.8631 20.208 22.913C20.1095 22.9628 20.0261 23.0382 19.9666 23.1313C19.9123 23.041 19.8347 22.967 19.742 22.9171C19.6492 22.8672 19.5447 22.8432 19.4395 22.8477C19.3478 22.8431 19.2564 22.8626 19.1745 22.9041C19.0926 22.9457 19.0229 23.0079 18.9725 23.0846V22.8878H18.6255V24.4823H18.9758V23.5983C18.9682 23.5438 18.9728 23.4882 18.9893 23.4357C19.0057 23.3831 19.0336 23.3349 19.0709 23.2944C19.1082 23.2538 19.154 23.2221 19.2051 23.2014C19.2561 23.1807 19.3111 23.1716 19.3661 23.1747C19.5963 23.1747 19.713 23.3248 19.713 23.595V24.4823H20.0633V23.5983C20.0563 23.5439 20.0613 23.4886 20.0779 23.4363C20.0946 23.3839 20.1225 23.3359 20.1597 23.2955C20.1969 23.2552 20.2425 23.2234 20.2933 23.2026C20.344 23.1817 20.3988 23.1722 20.4536 23.1747C20.6904 23.1747 20.8038 23.3248 20.8038 23.595V24.4823H21.1541ZM23.1089 22.8878H22.762V23.0813C22.7028 23.0049 22.6261 22.9439 22.5385 22.9033C22.4508 22.8627 22.3548 22.8436 22.2582 22.8477C22.0433 22.8583 21.8406 22.9511 21.6922 23.107C21.5438 23.2629 21.461 23.4698 21.461 23.6851C21.461 23.9003 21.5438 24.1073 21.6922 24.2631C21.8406 24.419 22.0433 24.5118 22.2582 24.5224C22.3548 24.5265 22.4508 24.5074 22.5385 24.4668C22.6261 24.4262 22.7028 24.3652 22.762 24.2888V24.4823H23.1089V22.8878ZM21.8179 23.685C21.8233 23.5909 21.8561 23.5005 21.9123 23.4248C21.9685 23.3492 22.0456 23.2916 22.1341 23.2592C22.2226 23.2268 22.3187 23.2211 22.4104 23.2426C22.5022 23.2642 22.5856 23.3121 22.6504 23.3805C22.7152 23.4489 22.7586 23.5348 22.7752 23.6276C22.7918 23.7204 22.7809 23.816 22.7438 23.9026C22.7067 23.9892 22.6451 24.0631 22.5665 24.1152C22.488 24.1672 22.3959 24.1951 22.3016 24.1954C22.2356 24.1963 22.17 24.1835 22.1092 24.1578C22.0483 24.1321 21.9934 24.0941 21.948 24.0462C21.9026 23.9982 21.8675 23.9414 21.8452 23.8792C21.8228 23.8171 21.8135 23.7509 21.8179 23.685ZM30.5323 22.8459C30.6495 22.8447 30.7657 22.8665 30.8745 22.91C30.9759 22.9505 31.0684 23.0104 31.1467 23.0865C31.2238 23.1621 31.2849 23.2524 31.3265 23.3521C31.4132 23.5656 31.4132 23.8045 31.3265 24.018C31.285 24.1177 31.2238 24.208 31.1467 24.2836C31.0684 24.3597 30.9759 24.4197 30.8745 24.4601C30.6544 24.5456 30.4103 24.5456 30.1902 24.4601C30.0889 24.4198 29.9967 24.3598 29.9187 24.2836C29.8421 24.2078 29.7813 24.1175 29.7398 24.018C29.6532 23.8045 29.6532 23.5656 29.7398 23.3521C29.7813 23.2526 29.8421 23.1623 29.9187 23.0865C29.9967 23.0103 30.0889 22.9503 30.1902 22.91C30.2989 22.8665 30.4152 22.8447 30.5323 22.8459ZM30.5323 23.1739C30.4645 23.1733 30.3972 23.186 30.3342 23.2114C30.2749 23.2352 30.2211 23.2709 30.176 23.3162C30.1307 23.3626 30.095 23.4175 30.0711 23.4778C30.0201 23.6113 30.0201 23.7589 30.0711 23.8924C30.095 23.9526 30.1307 24.0075 30.176 24.0539C30.2211 24.0993 30.2749 24.135 30.3342 24.1588C30.4616 24.2087 30.6031 24.2087 30.7304 24.1588C30.7899 24.1348 30.844 24.0992 30.8895 24.0539C30.9352 24.0077 30.9712 23.9528 30.9952 23.8924C31.0463 23.7589 31.0463 23.6113 30.9952 23.4778C30.9712 23.4174 30.9352 23.3624 30.8895 23.3162C30.844 23.271 30.7899 23.2353 30.7304 23.2114C30.6675 23.186 30.6002 23.1733 30.5323 23.1739ZM24.9967 23.685C24.9934 23.188 24.6865 22.8477 24.2395 22.8477C24.0231 22.8591 23.8195 22.9538 23.6715 23.112C23.5234 23.2702 23.4424 23.4796 23.4454 23.6963C23.4485 23.9129 23.5353 24.12 23.6877 24.274C23.8401 24.428 24.0462 24.517 24.2628 24.5224C24.5008 24.5307 24.7336 24.4511 24.9166 24.2988L24.7465 24.042C24.6148 24.1475 24.4516 24.2062 24.2828 24.2088C24.1682 24.2184 24.0543 24.1831 23.9653 24.1102C23.8762 24.0374 23.819 23.9328 23.8058 23.8185H24.99C24.9934 23.7751 24.9967 23.7318 24.9967 23.685ZM23.8091 23.5449C23.8152 23.4379 23.863 23.3375 23.9421 23.2652C24.0213 23.1929 24.1256 23.1544 24.2328 23.158C24.3376 23.156 24.4389 23.1955 24.5146 23.2681C24.5902 23.3406 24.634 23.4402 24.6364 23.5449H23.8091ZM26.4577 23.2948C26.3063 23.2077 26.1353 23.1606 25.9607 23.158C25.7705 23.158 25.6571 23.228 25.6571 23.3448C25.6571 23.4516 25.7772 23.4816 25.9273 23.5016L26.0908 23.5249C26.4377 23.575 26.6478 23.7217 26.6478 24.0019C26.6478 24.3055 26.381 24.5224 25.9207 24.5224C25.6743 24.5292 25.4322 24.4567 25.2301 24.3155L25.3936 24.0453C25.5467 24.1588 25.7335 24.2176 25.924 24.2121C26.1608 24.2121 26.2876 24.1421 26.2876 24.0186C26.2876 23.9286 26.1975 23.8785 26.0074 23.8519L25.8439 23.8285C25.487 23.7785 25.2935 23.6183 25.2935 23.3581C25.2935 23.0412 25.5537 22.8477 25.9573 22.8477C26.1857 22.8399 26.4115 22.8978 26.6078 23.0146L26.4577 23.2948ZM28.1247 23.2047H27.5576V23.9253C27.5576 24.0853 27.6144 24.1921 27.7878 24.1921C27.8961 24.1885 28.0017 24.1575 28.0947 24.1021L28.1948 24.399C28.0647 24.48 27.9144 24.5228 27.7611 24.5224C27.3508 24.5224 27.2074 24.3022 27.2074 23.9319V23.2047H26.8838V22.8878H27.2074L27.2073 22.4041H27.5575L27.5576 22.8878H28.1247V23.2047ZM29.3254 22.8477C29.4095 22.8481 29.493 22.8628 29.5722 22.8911L29.4655 23.218C29.3965 23.1906 29.3229 23.177 29.2487 23.178C29.0218 23.178 28.9084 23.3248 28.9084 23.5883V24.4823H28.5615V22.8878H28.9051V23.0813C28.9476 23.0081 29.0091 22.9478 29.0831 22.9067C29.1571 22.8656 29.2408 22.8453 29.3254 22.8477ZM31.7272 24.2502C31.7487 24.2501 31.7701 24.2543 31.79 24.2627C31.8091 24.2706 31.8265 24.2822 31.8413 24.2967C31.856 24.3112 31.8678 24.3283 31.8759 24.3473C31.8843 24.3667 31.8886 24.3877 31.8886 24.4088C31.8886 24.43 31.8843 24.4509 31.8759 24.4704C31.8677 24.4892 31.856 24.5063 31.8413 24.5207C31.8265 24.5352 31.8091 24.5468 31.79 24.5549C31.7701 24.5634 31.7488 24.5678 31.7272 24.5676C31.6954 24.5679 31.6642 24.5589 31.6375 24.5416C31.6109 24.5243 31.5899 24.4995 31.5772 24.4704C31.5689 24.4509 31.5646 24.43 31.5646 24.4088C31.5646 24.3877 31.5689 24.3667 31.5772 24.3473C31.5854 24.3284 31.5971 24.3112 31.6117 24.2967C31.6265 24.2821 31.644 24.2705 31.6632 24.2627C31.6835 24.2543 31.7052 24.25 31.7272 24.2502ZM31.7272 24.5326C31.7436 24.5327 31.7599 24.5294 31.775 24.5229C31.7895 24.5166 31.8027 24.5076 31.8139 24.4964C31.8282 24.4821 31.8388 24.4645 31.8448 24.4452C31.8507 24.4258 31.8518 24.4053 31.848 24.3855C31.8441 24.3656 31.8355 24.347 31.8228 24.3312C31.81 24.3155 31.7937 24.3031 31.775 24.2952C31.7599 24.2887 31.7436 24.2855 31.7272 24.2856C31.7104 24.2855 31.6938 24.2887 31.6784 24.2952C31.6636 24.3012 31.6502 24.3101 31.6389 24.3214C31.6158 24.3447 31.6029 24.3761 31.6029 24.4089C31.6029 24.4417 31.6158 24.4731 31.6389 24.4964C31.6505 24.508 31.6643 24.5171 31.6794 24.5233C31.6946 24.5295 31.7108 24.5327 31.7272 24.5326ZM31.7365 24.3346C31.7521 24.3336 31.7676 24.3381 31.7803 24.3473C31.7853 24.3514 31.7893 24.3567 31.792 24.3627C31.7947 24.3686 31.7959 24.3751 31.7956 24.3817C31.7958 24.3873 31.7948 24.3928 31.7927 24.398C31.7906 24.4032 31.7874 24.4079 31.7834 24.4118C31.7737 24.4204 31.7615 24.4255 31.7486 24.4264L31.7968 24.482H31.7591L31.7144 24.4268H31.7V24.482H31.6684V24.3346H31.7365ZM31.7 24.3622V24.4015H31.7361C31.7431 24.4019 31.75 24.4002 31.756 24.3966C31.7584 24.395 31.7604 24.3928 31.7617 24.3901C31.763 24.3875 31.7635 24.3846 31.7633 24.3817C31.7635 24.3788 31.7629 24.376 31.7616 24.3734C31.7603 24.3708 31.7584 24.3686 31.756 24.3671C31.75 24.3636 31.7431 24.3619 31.7361 24.3622H31.7Z" fill="black"/>
<path d="M27.6314 10.718H22.3699V20.1731H27.6314V10.718Z" fill="#7375CF"/>
<path d="M22.704 15.4456C22.7031 14.535 22.9095 13.6361 23.3074 12.8171C23.7053 11.998 24.2843 11.2802 25.0007 10.718C24.1136 10.0207 23.0483 9.58713 21.9264 9.46672C20.8045 9.34631 19.6714 9.54396 18.6566 10.0371C17.6418 10.5302 16.7862 11.2989 16.1875 12.2553C15.5889 13.2117 15.2715 14.3173 15.2715 15.4456C15.2715 16.5739 15.5889 17.6794 16.1875 18.6358C16.7862 19.5922 17.6418 20.3609 18.6566 20.8541C19.6714 21.3472 20.8045 21.5448 21.9264 21.4244C23.0483 21.304 24.1136 20.8704 25.0007 20.1731C24.2843 19.6109 23.7053 18.8931 23.3074 18.0741C22.9095 17.255 22.7032 16.3562 22.704 15.4456Z" fill="#EB001B"/>
<path d="M34.1559 19.1717V18.9781H34.2339V18.9387H34.0351V18.9781H34.1132V19.1717H34.1559ZM34.5418 19.1717V18.9383H34.4809L34.4108 19.0989L34.3407 18.9383H34.2797V19.1717H34.3227V18.9957L34.3885 19.1474H34.4331L34.4988 18.9953V19.1717H34.5418Z" fill="#00A2E5"/>
<path d="M34.7295 15.4456C34.7296 16.5739 34.4122 17.6794 33.8136 18.6358C33.215 19.5922 32.3594 20.3609 31.3446 20.854C30.3298 21.3472 29.1967 21.5448 28.0749 21.4244C26.953 21.304 25.8877 20.8704 25.0007 20.1731C25.7164 19.6104 26.2949 18.8925 26.6928 18.0735C27.0906 17.2546 27.2973 16.356 27.2973 15.4456C27.2973 14.5351 27.0906 13.6365 26.6928 12.8176C26.2949 11.9987 25.7164 11.2808 25.0007 10.718C25.8877 10.0207 26.953 9.58712 28.0749 9.46671C29.1967 9.34631 30.3298 9.54396 31.3446 10.0371C32.3594 10.5302 33.215 11.2989 33.8136 12.2553C34.4122 13.2118 34.7296 14.3173 34.7295 15.4456Z" fill="#00A2E5"/>
<rect x="2.5" y="1.5" width="45" height="31" rx="4.5" stroke="#DAE0E6"/>
</g>
<defs>
<filter id="filter0_d_4_183844" x="0" y="0" width="50" height="36" filterUnits="userSpaceOnUse" color-interpolation-filters="sRGB">
<feFlood flood-opacity="0" result="BackgroundImageFix"/>
<feColorMatrix in="SourceAlpha" type="matrix" values="0 0 0 0 0 0 0 0 0 0 0 0 0 0 0 0 0 0 127 0" result="hardAlpha"/>
<feOffset dy="1"/>
<feGaussianBlur stdDeviation="1"/>
<feComposite in2="hardAlpha" operator="out"/>
<feColorMatrix type="matrix" values="0 0 0 0 0.0627451 0 0 0 0 0.0941176 0 0 0 0 0.156863 0 0 0 0.04 0"/>
<feBlend mode="normal" in2="BackgroundImageFix" result="effect1_dropShadow_4_183844"/>
<feBlend mode="normal" in="SourceGraphic" in2="effect1_dropShadow_4_183844" result="shape"/>
</filter>
</defs>
</svg>
